<svg xmlns="http://www.w3.org/2000/svg" version="1.1" xmlns:xlink="http://www.w3.org/1999/xlink" xmlns:svgjs="http://svgjs.dev/svgjs" viewBox="0 0 1422 800"><defs><filter id="llleaves-blur-2" x="-100%" y="-100%" width="400%" height="400%"><feGaussianBlur in="SourceGraphic" stdDeviation="2"></feGaussianBlur></filter><filter id="llleaves-blur-3" x="-100%" y="-100%" width="400%" height="400%"><feGaussianBlur in="SourceGraphic" stdDeviation="4"></feGaussianBlur></filter><filter id="llleaves-blur-4" x="-100%" y="-100%" width="400%" height="400%"><feGaussianBlur in="SourceGraphic" stdDeviation="12"></feGaussianBlur></filter></defs><g fill="hsl(20.54,90.24%,48.24%)"><path d="M236 606H286C314 606 336 628 336 656H286C258 656 236 634 236 606Z " transform="matrix(-0.2689592848416837,-0.3701906969989499,0.3701906969989499,-0.2689592848416837,129.33202565838414,906.587848076802)" opacity="0.70"></path><path d="M801 334H851C879 334 901 356 901 384H851C823 384 801 362 801 334Z " transform="matrix(-0.38270304966263424,-0.04022371136863321,0.04022371136863321,-0.38270304966263424,1162.2399828815624,530.6207732035925)" filter="url(#llleaves-blur-2)" opacity="0.59"></path><path d="M119 567H169C197 567 219 589 219 617H169C141 617 119 595 119 567Z " transform="matrix(-0.23956740829170384,-0.39870712225977173,0.39870712225977173,-0.23956740829170384,-26.547724376486883,801.2054093705901)" opacity="0.71"></path><path d="M7 538H57C85 538 107 560 107 588H57C29 588 7 566 7 538Z " transform="matrix(-0.22714103837485755,-0.40977328041018235,0.40977328041018235,-0.22714103837485755,-160.75531768356578,714.2374815884252)" opacity="0.72"></path><path d="M1306 557H1356C1384 557 1406 579 1406 607H1356C1328 607 1306 585 1306 557Z " transform="matrix(-0.14685189590819211,0.2444025973042781,-0.2444025973042781,-0.14685189590819211,1697.3734824825983,336.0578814739667)" filter="url(#llleaves-blur-3)" opacity="0.44"></path><path d="M1130 716H1180C1208 716 1230 738 1230 766H1180C1152 766 1130 744 1130 716Z " transform="matrix(-0.28090631462068055,0.16878554209173283,-0.16878554209173283,-0.28090631462068055,1636.5395379423771,749.9846394656795)" filter="url(#llleaves-blur-2)" opacity="0.50"></path><path d="M1178 292H1228C1256 292 1278 314 1278 342H1228C1200 342 1178 320 1178 292Z " transform="matrix(-0.2408921229626171,0.20213249153144408,-0.20213249153144408,-0.2408921229626171,1587.8915268135615,145.14410337853627)" filter="url(#llleaves-blur-2)" opacity="0.48"></path><path d="M14 397H64C92 397 114 419 114 447H64C36 447 14 425 14 397Z " transform="matrix(-0.22693429124624465,-0.4094002987168994,0.4094002987168994,-0.22693429124624465,-94.2431314187719,543.9678900237967)" opacity="0.72"></path><path d="M668 340H718C746 340 768 362 768 390H718C690 390 668 368 668 340Z " transform="matrix(-0.3822720690483889,-0.12420772455352723,0.12420772455352723,-0.3822720690483889,947.135526114706,593.7104514320945)" opacity="0.62"></path><path d="M867 598H917C945 598 967 620 967 648H917C889 648 867 626 867 598Z " transform="matrix(-0.3758356463091069,-0.00656023560866396,0.00656023560866396,-0.3758356463091069,1257.5542608812534,863.1613437037184)" filter="url(#llleaves-blur-2)" opacity="0.58"></path><path d="M262 476H312C340 476 362 498 362 526H312C284 526 262 504 262 476Z " transform="matrix(-0.2801658387775951,-0.35859592096973825,0.35859592096973825,-0.2801658387775951,219.75518529277082,753.2450125701334)" opacity="0.70"></path><path d="M1301 417H1351C1379 417 1401 439 1401 467H1351C1323 467 1301 445 1301 417Z " transform="matrix(-0.14685189590819211,0.2444025973042781,-0.2444025973042781,-0.14685189590819211,1657.4228593804582,176.7206290333412)" filter="url(#llleaves-blur-3)" opacity="0.44"></path><path d="M163 160H213C241 160 263 182 263 210H213C185 210 163 188 163 160Z " transform="matrix(-0.2515488490762461,-0.3873512593803937,0.3873512593803937,-0.2515488490762461,194.91992186786757,314.04235532712937)" opacity="0.71"></path><path d="M1025 478H1075C1103 478 1125 500 1125 528H1075C1047 528 1025 506 1025 478Z " transform="matrix(-0.3268657111875025,0.11254889019942191,-0.11254889019942191,-0.3268657111875025,1482.9927312968744,546.4233957629351)" filter="url(#llleaves-blur-2)" opacity="0.53"></path><path d="M425 290H475C503 290 525 312 525 340H475C447 340 425 318 425 290Z " transform="matrix(-0.3381013518642778,-0.27378907634133925,0.27378907634133925,-0.3381013518642778,549.3545830880101,551.5517370993837)" opacity="0.67"></path><path d="M889 462H939C967 462 989 484 989 512H939C911 512 889 490 889 462Z " transform="matrix(-0.3710485079860654,0.012957299417638207,-0.012957299417638207,-0.3710485079860654,1293.7247538153051,655.5337192360516)" filter="url(#llleaves-blur-2)" opacity="0.57"></path><path d="M151 714H201C229 714 251 736 251 764H201C173 764 151 742 151 714Z " transform="matrix(-0.2456868930875417,-0.3931812183408099,0.3931812183408099,-0.2456868930875417,-40.17785484326265,999.5920388781963)" opacity="0.71"></path><path d="M305 190H355C383 190 405 212 405 240H355C327 240 305 218 305 190Z " transform="matrix(-0.28463948217431156,-0.3515004871746671,0.3515004871746671,-0.28463948217431156,380.4744114293272,400.9801616144838)" opacity="0.69"></path><path d="M1058 331H1108C1136 331 1158 353 1158 381H1108C1080 381 1058 359 1058 331Z " transform="matrix(-0.3129273718804776,0.13282978866592052,-0.13282978866592052,-0.3129273718804776,1502.010932808637,320.22673854761007)" filter="url(#llleaves-blur-2)" opacity="0.52"></path><path d="M936 327H986C1014 327 1036 349 1036 377H986C958 377 936 355 936 327Z " transform="matrix(-0.35715381732980983,0.05656760746755365,-0.05656760746755365,-0.35715381732980983,1358.0654617157713,421.94248273708524)" filter="url(#llleaves-blur-2)" opacity="0.55"></path><path d="M401 40H451C479 40 501 62 501 90H451C423 90 401 68 401 40Z " transform="matrix(-0.3850404698654098,-0.10317128295373641,0.10317128295373641,-0.3850404698654098,617.947118517307,136.55787915338675)" filter="url(#llleaves-blur-2)" opacity="0.61"></path></g><g fill="none" stroke-width="3" stroke="hsl(20.54,90.24%,48.24%)"><path d="M20 150H70C98 150 120 172 120 200H70C42 200 20 178 20 150Z " transform="matrix(-0.27943864245376016,-0.35766515212008415,0.35766515212008415,-0.27943864245376016,26.96930335074849,248.93832307781392)" opacity="0.70"></path><path d="M164 287H214C242 287 264 309 264 337H214C186 337 164 315 164 287Z " transform="matrix(-0.2515488490762461,-0.3873512593803937,0.3873512593803937,-0.2515488490762461,146.97786077563381,473.376410419193)" opacity="0.71"></path><path d="M962 46H1012C1040 46 1062 68 1062 96H1012C984 96 962 74 962 46Z " transform="matrix(-0.3834834240970826,-0.053895080517135194,0.053895080517135194,-0.3834834240970826,1396.258674469531,152.7691445942337)" filter="url(#llleaves-blur-2)" opacity="0.59"></path><path d="M23 270H73C101 270 123 292 123 320H73C45 320 23 298 23 270Z " transform="matrix(-0.22693429124624465,-0.4094002987168994,0.4094002987168994,-0.22693429124624465,-31.20688486050949,391.8318377239758)" opacity="0.72"></path><path d="M370 582H420C448 582 470 604 470 632H420C392 632 370 610 370 582Z " transform="matrix(-0.3183391432516118,-0.3074165372197827,0.3074165372197827,-0.3183391432516118,367.1006020732689,929.3468055860371)" opacity="0.68"></path><path d="M15 696H65C93 696 115 718 115 746H65C37 746 15 724 15 696Z " transform="matrix(-0.22693429124624465,-0.4094002987168994,0.4094002987168994,-0.22693429124624465,-215.42688644387863,911.2306434051408)" opacity="0.72"></path><path d="M775 712H825C853 712 875 734 875 762H825C797 762 775 740 775 712Z " transform="matrix(-0.38436368578639646,-0.06087722725435427,0.06087722725435427,-0.38436368578639646,1097.233524287318,1070.4997489094162)" filter="url(#llleaves-blur-2)" opacity="0.60"></path><path d="M674 52H724C752 52 774 74 774 102H724C696 102 674 80 674 52Z " transform="matrix(-0.3842176017473062,-0.09579620730085234,0.09579620730085234,-0.3842176017473062,994.7972357028839,175.94120942035966)" filter="url(#llleaves-blur-2)" opacity="0.61"></path><path d="M755 486H805C833 486 855 508 855 536H805C777 536 755 514 755 486Z " transform="matrix(-0.38436368578639646,-0.06087722725435427,0.06087722725435427,-0.38436368578639646,1083.3045039310741,756.4160113766038)" filter="url(#llleaves-blur-2)" opacity="0.60"></path><path d="M454 707H504C532 707 554 729 554 757H504C476 757 454 735 454 707Z " transform="matrix(-0.3442962268045561,-0.2594458161436833,0.2594458161436833,-0.3442962268045561,487.6109608923201,1114.7855293573514)" opacity="0.66"></path><path d="M140 36H190C218 36 240 58 240 86H190C162 86 140 64 140 36Z " transform="matrix(-0.3815432372395565,-0.13887038144076658,0.13887038144076658,-0.3815432372395565,254.022121807629,110.6595099453586)" opacity="0.62"></path><path d="M613 477H663C691 477 713 499 713 527H663C635 527 613 505 613 477Z " transform="matrix(-0.37776261119688537,-0.1603507149586582,0.1603507149586582,-0.37776261119688537,832.9605523142886,797.9493548384269)" opacity="0.63"></path><path d="M816 48H866C894 48 916 70 916 98H866C838 98 816 76 816 48Z " transform="matrix(-0.3849047221265869,-0.08886225695305261,0.08886225695305261,-0.3849047221265869,1192.8405446040515,178.0527592365844)" filter="url(#llleaves-blur-2)" opacity="0.61"></path><path d="M1293 704H1343C1371 704 1393 726 1393 754H1343C1315 754 1293 732 1293 704Z " transform="matrix(-0.14685189590819211,0.2444025973042781,-0.2444025973042781,-0.14685189590819211,1718.3915896395208,507.8223439374266)" filter="url(#llleaves-blur-3)" opacity="0.44"></path></g></svg>